<svg width="168" height="91" viewBox="0 0 168 91" fill="none" xmlns="http://www.w3.org/2000/svg">
<path fill-rule="evenodd" clip-rule="evenodd" d="M30 12C20.0589 12 12 20.0589 12 30C12 39.9411 20.0589 48 30 48C39.9411 48 48 39.9411 48 30C48 20.0589 39.9411 12 30 12ZM0 30C0 13.4315 13.4315 0 30 0C46.5685 0 60 13.4315 60 30C60 46.5685 46.5685 60 30 60C13.4315 60 0 46.5685 0 30Z" fill="#333333"/>
<circle cx="30" cy="30" r="14" fill="#333333"/>
<circle cx="138" cy="30" r="14" fill="#333333"/>
<path fill-rule="evenodd" clip-rule="evenodd" d="M138 12C128.059 12 120 20.0589 120 30C120 39.9411 128.059 48 138 48C147.941 48 156 39.9411 156 30C156 20.0589 147.941 12 138 12ZM108 30C108 13.4315 121.431 0 138 0C154.569 0 168 13.4315 168 30C168 46.5685 154.569 60 138 60C121.431 60 108 46.5685 108 30Z" fill="#333333"/>
<path fill-rule="evenodd" clip-rule="evenodd" d="M114.552 69.7262C115.808 72.7924 114.342 76.2968 111.275 77.5534L80.7753 90.0534C77.7091 91.31 74.2048 89.8431 72.9482 86.7769C71.6915 83.7107 73.1585 80.2064 76.2247 78.9497L106.725 66.4497C109.791 65.1931 113.295 66.66 114.552 69.7262Z" fill="#333333"/>
</svg>
