<svg width="116" height="36" viewBox="0 0 116 36" fill="none" xmlns="http://www.w3.org/2000/svg">
<path d="M32.448 10.56C27.744 10.56 25.584 13.488 24.624 17.808H23.232C22.512 13.584 20.592 10.56 16.032 10.56C11.328 10.56 9.12 13.488 8.16 17.808H6.24L7.68 13.488V11.04H0V35.28H7.68V26.784C7.68 20.928 8.64 17.28 12.816 17.28C15.648 17.28 16.416 18.576 16.416 23.184V35.28H24.096V26.784C24.096 20.928 25.056 17.28 29.232 17.28C32.064 17.28 32.832 18.576 32.832 23.184V35.28H40.512V22.656C40.512 16.128 38.64 10.56 32.448 10.56Z" fill="#333333"/>
<path d="M43.3838 22.848C43.3838 29.712 47.6558 35.76 56.9678 35.76C65.3678 35.76 69.3518 30.24 69.8318 26.736H62.1518C61.6718 28.56 59.6558 29.52 56.9678 29.52C52.5998 29.52 50.5837 27.552 50.5837 24.768H68.9678V22.368C68.9678 15.024 63.6877 10.56 56.1517 10.56C48.6157 10.56 43.3838 15.168 43.3838 22.848ZM50.5837 20.448C50.5837 18.624 51.8797 16.8 56.1517 16.8C60.4237 16.8 61.7677 18.624 61.7677 20.448H50.5837Z" fill="#333333"/>
<path d="M90.0311 10.56C84.8471 10.56 81.8231 13.968 80.8631 18.288H78.9431L80.3831 13.968V0H72.7031V35.28H80.3831V26.304C80.3831 19.488 83.1191 17.28 87.2951 17.28C90.9911 17.28 92.2871 18.96 92.2871 23.376V35.28H99.9671V22.176C99.9671 14.688 96.2231 10.56 90.0311 10.56Z" fill="#333333"/>
<path d="M110.478 35.76C113.646 35.76 115.806 33.456 115.806 30.432C115.806 27.504 113.646 25.2 110.478 25.2C107.214 25.2 105.246 27.504 105.246 30.432C105.246 33.456 107.214 35.76 110.478 35.76Z" fill="#333333"/>
</svg>
